<svg version="1.1" xmlns="http://www.w3.org/2000/svg" viewBox="0 0 310.60658749368986 268.07401426636613" width="310.60658749368986" height="268.07401426636613">
	<!-- svg-source:excalidraw -->
	<g stroke-linecap="round" transform="translate(23.099906778978266 10) rotate(0 31.5 32)">
		<path d="M33.09 -0.25 C39.44 -0.45, 46.65 2.87, 51.71 7.46 C56.77 12.06, 62.33 20.32, 63.43 27.33 C64.52 34.34, 61.81 43.74, 58.28 49.51 C54.75 55.28, 48.65 59.78, 42.25 61.94 C35.86 64.1, 26.25 64.91, 19.93 62.48 C13.61 60.05, 7.69 53.36, 4.34 47.35 C0.99 41.34, -1.46 33.07, -0.18 26.43 C1.11 19.78, 6.22 12.05, 12.04 7.5 C17.87 2.95, 30.77 0.32, 34.77 -0.87 C38.76 -2.07, 36.11 -0.3, 36.01 0.33 M38.6 1.84 C44.82 3.06, 53.14 6.66, 57.28 12.37 C61.42 18.08, 63.88 28.9, 63.45 36.11 C63.01 43.32, 59.47 50.87, 54.67 55.62 C49.87 60.38, 41.53 64.46, 34.65 64.65 C27.76 64.84, 18.81 61.09, 13.35 56.78 C7.9 52.47, 3.44 44.97, 1.91 38.8 C0.38 32.63, 1.28 25.67, 4.17 19.76 C7.06 13.85, 13.1 6.56, 19.24 3.35 C25.39 0.15, 37.57 0.86, 41.04 0.53 C44.52 0.2, 40.57 0.86, 40.1 1.38" stroke="currentColor" stroke-width="4" fill="none"></path>
	</g>
	<g stroke-linecap="round" transform="translate(34.099906778978266 81) rotate(0 21.573275862068954 37.5)">
		<path d="M-0.34 1.88 C9.98 -0.97, 18.3 -0.16, 41.67 0.84 M-0.32 -0.28 C9.36 0.19, 18.84 0.56, 42.15 0.06 M42.86 -1.24 C41.48 21.24, 42.51 43.74, 44.89 73.87 M43.99 -0.42 C43.58 28.35, 44.2 57.27, 42.91 75.83 M41.31 75.61 C29.27 73.59, 16.5 76.58, 0.92 74.03 M43.92 74.77 C28.22 74.61, 13.54 75.75, 0.58 75.53 M-0.05 73.35 C1.74 60.19, 1.12 41.15, 1.04 0.61 M0.48 75 C-0.43 56.75, -0.98 35.97, 0.35 -0.7" stroke="currentColor" stroke-width="4" fill="none"></path>
	</g>
	<g stroke-linecap="round">
		<g transform="translate(51.099906778978266 165) rotate(0 -9.734446632796903 45.87658826091328)">
			<path d="M-0.47 -0.18 C-3.64 15.21, -16.9 76.46, -20.01 92.04 M1.49 -1.32 C-1.75 14.21, -17.47 77.06, -20.96 93.07" stroke="currentColor" stroke-width="4" fill="none"></path>
		</g>
	</g>
	<g stroke-linecap="round">
		<g transform="translate(65.09990677897827 165) rotate(0 5.833996659866557 45.962768417471096)">
			<path d="M-0.68 -0.79 C1.02 14.33, 8.24 75.9, 10.1 91.46 M1.17 1.41 C3.24 16.62, 10.95 77.85, 12.34 92.72" stroke="currentColor" stroke-width="4" fill="none"></path>
		</g>
	</g>
	<g stroke-linecap="round">
		<g transform="translate(84.09990677897827 97) rotate(0 9.413218363332533 28.373616426107475)">
			<path d="M1.04 -0.12 C4.3 9.63, 15.7 48.51, 18.7 57.98 M0.13 -1.23 C3.29 8.25, 14.63 46.53, 17.67 56.38" stroke="currentColor" stroke-width="4" fill="none"></path>
		</g>
	</g>
	<g stroke-linecap="round">
		<g transform="translate(26.099906778978152 93) rotate(0 -7.511280409940525 29.315113200992357)">
			<path d="M1.08 -1.03 C-1.4 9, -12.43 49.59, -15.36 59.66 M0.18 1.04 C-2.38 10.78, -13.73 48.59, -16.1 57.98" stroke="currentColor" stroke-width="4" fill="none"></path>
		</g>
	</g>
	<g stroke-linecap="round" transform="translate(203.55423527610503 10) rotate(0 31.5 32)">
		<path d="M19.55 3.16 C25.31 0.46, 34.37 0.27, 40.84 2.32 C47.3 4.37, 54.83 9.55, 58.34 15.45 C61.85 21.34, 62.73 30.77, 61.9 37.67 C61.07 44.57, 58.18 52.49, 53.36 56.84 C48.55 61.2, 39.78 63.92, 33 63.8 C26.21 63.68, 18.02 60.52, 12.65 56.13 C7.29 51.75, 2.33 43.91, 0.82 37.5 C-0.69 31.1, -0.27 23.83, 3.59 17.71 C7.45 11.59, 19.62 3.76, 23.96 0.77 C28.31 -2.22, 29.42 -0.86, 29.66 -0.22 M19.52 2.62 C25.36 -0.54, 34.82 -0.12, 40.91 1.88 C47 3.89, 52.32 9, 56.06 14.65 C59.81 20.3, 63.89 29.3, 63.38 35.79 C62.88 42.29, 57.86 49.14, 53.04 53.62 C48.21 58.09, 41.18 61.9, 34.43 62.65 C27.68 63.4, 18.12 61.87, 12.56 58.11 C7 54.35, 2.83 46.87, 1.07 40.08 C-0.7 33.29, -0.74 23.59, 2 17.37 C4.74 11.15, 14.61 5.04, 17.51 2.75 C20.42 0.46, 18.97 2.89, 19.44 3.64" stroke="currentColor" stroke-width="4" fill="none"></path>
	</g>
	<g stroke-linecap="round" transform="translate(214.55423527610503 81) rotate(0 21.573275862068954 37.5)">
		<path d="M-1.51 -0.52 C14.69 -0.71, 30.25 -1.22, 44.5 0 M0.96 0.9 C14.44 -0.61, 28.33 -1.36, 43.32 -0.91 M42.96 1.82 C41.88 21.86, 45.08 40.16, 43.06 76.61 M43.64 -0.91 C43.55 28.46, 43.52 55.83, 42.37 75.27 M43.21 75.02 C32.39 73.81, 23.27 74.8, 1.05 75.2 M42.29 74.27 C28.98 75.09, 13.48 75.45, -0.52 74.75 M-0.64 76.38 C0.47 55.16, -1.2 36.11, -1.45 -0.17 M0.42 75.38 C0.4 48.53, 0.31 24.4, 0.53 -0.34" stroke="currentColor" stroke-width="4" fill="none"></path>
	</g>
	<g stroke-linecap="round">
		<g transform="translate(231.55423527610503 165) rotate(0 -21.838571693543315 40.0357809692062)">
			<path d="M-0.9 -0.31 C-8.23 13.08, -36.71 66.91, -43.71 80.29 M0.82 -1.52 C-6.66 12.04, -37.18 67.86, -44.5 81.59" stroke="currentColor" stroke-width="4" fill="none"></path>
		</g>
	</g>
	<g stroke-linecap="round">
		<g transform="translate(245.55423527610503 165) rotate(0 24.402524274960115 42.30357939582785)">
			<path d="M-0.31 0.29 C7.89 14.65, 40.93 71.1, 49.12 85.2 M1.72 -0.6 C9.73 13.52, 39.67 69.73, 47.94 83.66" stroke="currentColor" stroke-width="4" fill="none"></path>
		</g>
	</g>
	<g stroke-linecap="round">
		<g transform="translate(264.55423527610503 97) rotate(0 17.520577732822858 -34.40142910224853)">
			<path d="M0.29 -0.44 C6.45 -11.78, 30.14 -57.17, 36.05 -68.36 M-1.01 -1.72 C5.17 -12.89, 29.61 -56.45, 35.68 -67.22" stroke="currentColor" stroke-width="4" fill="none"></path>
		</g>
	</g>
	<g stroke-linecap="round">
		<g transform="translate(206.5542352761048 93) rotate(0 -12.862624853444345 -30.56841430846137)">
			<path d="M-0.44 1.1 C-4.93 -9.04, -22.91 -50.17, -27.25 -60.54 M1.53 0.64 C-2.55 -9.86, -20.13 -52.19, -24.93 -62.24" stroke="currentColor" stroke-width="4" fill="none"></path>
		</g>
	</g>
</svg>