<svg version="1.1" xmlns="http://www.w3.org/2000/svg" viewBox="0 0 135.44408172312217 252.56797259051586" width="135.44408172312217" height="252.56797259051586">
	<!-- svg-source:excalidraw -->

	<g stroke-linecap="round" transform="translate(62.44408172312217 10) rotate(0 31.5 32)">
		<path d="M42 2.25 C48.16 4.02, 54.98 9.66, 58.49 15.59 C62 21.51, 64.09 30.85, 63.06 37.8 C62.04 44.75, 57.41 53.05, 52.32 57.29 C47.24 61.53, 39.47 63.22, 32.55 63.25 C25.64 63.27, 16.25 61.75, 10.84 57.43 C5.42 53.12, 1.21 44.23, 0.05 37.37 C-1.11 30.51, 0.57 22.09, 3.87 16.28 C7.16 10.48, 12.72 4.46, 19.82 2.56 C26.93 0.65, 41.42 4.12, 46.49 4.85 C51.56 5.59, 50.39 6.73, 50.23 6.98 M38.24 1.84 C44.17 2.66, 50.47 6.89, 54.49 12.09 C58.5 17.3, 62.25 26.48, 62.32 33.07 C62.39 39.66, 59.42 46.77, 54.9 51.65 C50.39 56.53, 41.58 61.13, 35.21 62.35 C28.85 63.57, 22.49 62.36, 16.72 58.97 C10.95 55.59, 2.81 48.52, 0.59 42.05 C-1.63 35.58, 0.58 26.28, 3.41 20.15 C6.23 14.02, 11.85 8.42, 17.54 5.26 C23.23 2.1, 34.13 1.99, 37.55 1.18 C40.97 0.38, 38.38 -0.03, 38.05 0.44" stroke="#495057" stroke-width="4" fill="none"></path>
	</g>
	<g stroke-linecap="round" transform="translate(60.305395591735305 81) rotate(7.6434963284677035 21.573275862068954 37.5)">
		<path d="M1.38 -0.38 C13.76 -0.58, 28.31 -0.74, 42.58 1.03 M0.9 -0.75 C14.12 0.45, 28.84 -0.71, 42.87 0.15 M44.47 -1.88 C41.88 16.75, 42.32 34.29, 44.68 75.48 M43.32 -0.45 C44.15 26.08, 42.91 51.85, 42.32 75.94 M44.92 74.44 C33.37 76.52, 20.12 75.69, 0.93 73.97 M42.21 74.03 C34.69 75.55, 23.92 75.67, -0.87 75.26 M-1.64 76.61 C0.07 54.33, -0.11 36.58, 1.44 0.81 M-0.31 75.88 C-1.01 50.99, -1.66 26.45, 0.54 -0.23" stroke="#495057" stroke-width="4" fill="none"></path>
	</g>
	<g stroke-linecap="round">
		<g transform="translate(70.00612551874258 165) rotate(0 -10.670056380753124 17.805693096854043)">
			<path d="M0.83 -0.23 C-2.62 5.56, -17.62 29.61, -21.21 35.55 M-0.2 -1.39 C-3.76 4.51, -18.65 30.66, -22.17 37" stroke="#495057" stroke-width="4" fill="none"></path>
		</g>
	</g>
	<g stroke-linecap="round">
		<g transform="translate(43.50977515377906 207.11678832116786) rotate(0 -16.86422195446147 -4.91437476636014)">
			<path d="M-0.22 -0.16 C-5.91 -1.53, -27.48 -6.47, -33.07 -7.89 M-1.79 -1.29 C-7.66 -3.04, -28.09 -8.64, -33.51 -9.67" stroke="#495057" stroke-width="4" fill="none"></path>
		</g>
	</g>
	<g stroke-linecap="round">
		<g transform="translate(91.3053955917353 164.27007299270076) rotate(0 2.5248830322213394 16.218264417336798)">
			<path d="M-0.23 -0.01 C0.77 5.43, 5.69 28.05, 6.86 33.5 M-1.81 -1.06 C-1.05 3.94, 4.54 25.8, 5.82 31.61" stroke="#495057" stroke-width="4" fill="none"></path>
		</g>
	</g>
	<g stroke-linecap="round">
		<g transform="translate(101.23383341702765 207.7989070227385) rotate(0 -8.523838798375039 16.99566512737465)">
			<path d="M-0.07 -0.78 C-2.99 4.84, -13.67 27.63, -16.63 33.64 M-1.57 1.43 C-4.63 7.19, -14.14 29.44, -16.98 34.77" stroke="#495057" stroke-width="4" fill="none"></path>
		</g>
	</g>
	<g stroke-linecap="round">
		<g transform="translate(117.59322680994433 92.78312514248523) rotate(0 0.6950991004521825 13.466731881646183)">
			<path d="M-0.01 -0.16 C0.33 4.34, 2.52 22.18, 2.87 26.83 M-1.48 -1.3 C-1.33 3.41, 1.72 23.73, 2.16 28.23" stroke="#495057" stroke-width="4" fill="none"></path>
		</g>
	</g>
	<g stroke-linecap="round">
		<g transform="translate(55.955030628231384 87.16058394160586) rotate(0 -11.742854414141277 5.357657534190935)">
			<path d="M-0.16 0.45 C-3.83 2.07, -18.7 8.03, -22.24 9.71 M-1.71 -0.36 C-5.54 1.44, -19.97 9.61, -23.32 11.07" stroke="#495057" stroke-width="4" fill="none"></path>
		</g>
	</g>
	<g stroke-linecap="round">
		<g transform="translate(25.80904522677156 105.18978102189772) rotate(0 -6.897622284074259 13.57112888503707)">
			<path d="M-0.84 -0.97 C-3.23 3.48, -11.68 22.2, -14.25 27.15 M0.92 1.13 C-1.56 5.66, -12.23 23.86, -14.71 28.11" stroke="#495057" stroke-width="4" fill="none"></path>
		</g>
	</g>
	<g stroke-linecap="round">
		<g transform="translate(110.41696741351757 123.96940539930426) rotate(0 -17.087736554249148 -9.143068582067372)">
			<path d="M0.16 -0.26 C-5.3 -3.17, -27.79 -15.12, -33.27 -18.03 M-1.22 -1.44 C-6.81 -4.18, -28.98 -14.47, -34.33 -17.03" stroke="#495057" stroke-width="4" fill="none"></path>
		</g>
	</g>
</svg>