<svg version="1.1" xmlns="http://www.w3.org/2000/svg" viewBox="0 0 115.479390165734 249.17673726142436" width="115.479390165734" height="249.17673726142436">
	<!-- svg-source:excalidraw -->

	<g stroke-linecap="round">
		<g transform="translate(82.77678435629173 163.43795620438016) rotate(0 4.425443450056832 37.95439369750085)">
			<path d="M-0.48 0.8 C1.26 13.34, 7.76 62.2, 9.33 74.66 M1.48 0.17 C3.24 12.89, 7.77 62.95, 8.93 75.74" stroke="#495057" stroke-width="4" fill="none"></path>
		</g>
	</g>
	<g stroke-linecap="round">
		<g transform="translate(65.98016674264704 170.27737226277463) rotate(0 -17.025485069953447 -9.373891190915913)">
			<path d="M0.69 0.9 C-5.13 -2.52, -28.32 -16.12, -34.27 -19.65 M-0.41 0.33 C-6.37 -2.98, -28.86 -14.88, -34.74 -18.15" stroke="#495057" stroke-width="4" fill="none"></path>
		</g>
	</g>
	<g stroke-linecap="round">
		<g transform="translate(19.609997064468644 218.72669443262544) rotate(0 4.7925991776317005 -27.630270393330022)">
			<path d="M0.68 0.65 C2.16 -8.34, 8.49 -44.85, 10.01 -54.13 M-0.42 -0.05 C0.87 -9.38, 7.84 -46.95, 9.46 -55.91" stroke="#495057" stroke-width="4" fill="none"></path>
		</g>
	</g>
	<g stroke-linecap="round">
		<g transform="translate(89.00517959823947 109.59122138616749) rotate(0 -8.277076485656721 -6.573937425661711)">
			<path d="M-1.05 -0.79 C-3.65 -3.11, -13.53 -12.49, -15.93 -14.56 M0.6 1.41 C-2.17 -0.67, -14.35 -10.46, -17.16 -13.2" stroke="#495057" stroke-width="4" fill="none"></path>
		</g>
	</g>
	<g stroke-linecap="round">
		<g transform="translate(10.3136055789887 74.09351430573895) rotate(0 10.81048990549857 13.768086777197766)">
			<path d="M-0.31 1.15 C3.15 5.32, 18.15 21.44, 21.93 25.63 M1.72 0.7 C4.98 4.97, 17.87 22.34, 21.28 26.84" stroke="#495057" stroke-width="4" fill="none"></path>
		</g>
	</g>
	<g stroke-linecap="round">
		<g transform="translate(38.519517648461715 105.98845049094814) rotate(0 6.952417014672278 -5.686480429444373)">
			<path d="M0.93 -0.27 C2.95 -2.26, 9.68 -9.17, 11.7 -11.1 M-0.04 -1.46 C2.39 -3.32, 11.86 -8.02, 13.95 -9.61" stroke="#495057" stroke-width="4" fill="none"></path>
		</g>
	</g>
	<g stroke-linecap="round">
		<g transform="translate(63.34758984497603 137.34818327829225) rotate(0 11.885843584067857 -9.07052024858558)">
			<path d="M0.35 -0.47 C4.66 -3.24, 20.78 -15.11, 24.7 -17.67 M-0.93 -1.77 C3.39 -4.32, 20.17 -14, 24.17 -16.66" stroke="#495057" stroke-width="4" fill="none"></path>
		</g>
	</g>
	<g stroke-linecap="round" transform="translate(42.479390165734 10) rotate(0 31.5 32)">
		<path d="M29.31 0.57 C35.67 -0.31, 45.26 2.64, 50.59 6.59 C55.92 10.55, 59.69 17.89, 61.27 24.32 C62.85 30.74, 62.71 39.1, 60.08 45.14 C57.44 51.18, 51.68 57.68, 45.46 60.56 C39.24 63.43, 29.27 64.21, 22.77 62.37 C16.26 60.53, 10.08 54.92, 6.43 49.5 C2.78 44.09, 0.25 36.62, 0.86 29.86 C1.47 23.11, 5.19 13.83, 10.12 8.98 C15.05 4.13, 26.71 2.27, 30.45 0.75 C34.18 -0.77, 32.51 -0.56, 32.54 -0.11 M35.44 1.22 C41.79 2.26, 50.95 7.16, 55.78 12.29 C60.61 17.43, 64.45 25.16, 64.42 32.01 C64.39 38.86, 60.12 47.93, 55.6 53.39 C51.09 58.85, 43.78 63.72, 37.34 64.79 C30.91 65.85, 22.83 63.59, 17.01 59.78 C11.19 55.98, 4.87 48.51, 2.43 41.95 C0 35.39, 0.01 26.49, 2.39 20.44 C4.77 14.38, 11.21 8.92, 16.71 5.65 C22.2 2.38, 32.02 1.33, 35.35 0.81 C38.68 0.3, 36.78 2.06, 36.7 2.53" stroke="#495057" stroke-width="4" fill="none"></path>
	</g>
	<g stroke-linecap="round" transform="translate(53.479390165734 81) rotate(0 21.573275862068954 37.5)">
		<path d="M-0.34 1.82 C17.35 1.26, 34.59 2.22, 44.66 -1.35 M0.73 -0.48 C14.69 -0.32, 31.16 -0.58, 43.88 0.73 M44.64 -1.15 C41.3 27.9, 43.37 58.14, 44.01 73.45 M43.9 0.95 C43.79 16.4, 44.27 33.15, 44.04 75.64 M43.96 73.73 C32.18 76.19, 16.16 75.14, 0.24 76.97 M43.15 74.05 C34.19 75.8, 23.8 74.57, -0.8 74.58 M-1.08 73.67 C-0.31 55.17, -1.46 30.61, 1.31 0.56 M0 75.67 C0.41 57.43, 1.29 41.24, -0.43 0.22" stroke="#495057" stroke-width="4" fill="none"></path>
	</g>
</svg>