<svg version="1.1" xmlns="http://www.w3.org/2000/svg" viewBox="0 0 347.44853907783136 268.36496008787435" width="347.44853907783136" height="268.36496008787435">
	<!-- svg-source:excalidraw -->
	<g stroke-linecap="round" transform="translate(271.0258492864689 10.218978102189737) rotate(0 31.5 32)">
		<path d="M37.71 -0.13 C44.2 0.61, 52.37 6.11, 56.67 11.56 C60.97 17.01, 63.61 25.64, 63.52 32.58 C63.42 39.52, 60.57 48.15, 56.1 53.2 C51.63 58.25, 43.43 61.7, 36.69 62.88 C29.95 64.06, 21.64 63.57, 15.67 60.28 C9.69 56.99, 3.08 49.71, 0.85 43.14 C-1.37 36.57, -0.36 27.33, 2.3 20.87 C4.95 14.42, 10.17 7.5, 16.78 4.4 C23.4 1.29, 37.09 2.23, 42.01 2.22 C46.93 2.2, 46.35 3.7, 46.3 4.28 M30.03 -1.46 C36.14 -2.03, 44.46 1.66, 50.05 6.06 C55.65 10.47, 61.8 18.43, 63.6 24.97 C65.39 31.51, 64.14 39.3, 60.8 45.32 C57.45 51.34, 50.14 58.29, 43.53 61.09 C36.91 63.9, 27.32 64.24, 21.08 62.16 C14.85 60.08, 9.59 54.45, 6.1 48.63 C2.6 42.8, -0.57 34.07, 0.13 27.21 C0.82 20.36, 5.38 12.13, 10.28 7.49 C15.18 2.84, 26.29 0.27, 29.53 -0.65 C32.77 -1.57, 29.67 1.35, 29.74 1.96" stroke="#495057" stroke-width="4" fill="none"></path>
	</g>
	<g stroke-linecap="round" transform="translate(21.17183468792814 10) rotate(0 31.5 32)">
		<path d="M43.07 1.91 C49.25 4.02, 56.28 11.25, 59.56 17.44 C62.83 23.63, 64.16 32.39, 62.71 39.06 C61.26 45.73, 56.49 53.38, 50.86 57.48 C45.23 61.57, 35.86 64.16, 28.93 63.64 C22 63.11, 14 59.08, 9.3 54.32 C4.59 49.55, 1.36 41.8, 0.7 35.05 C0.05 28.3, 1.76 19.27, 5.35 13.79 C8.94 8.31, 15.24 3.76, 22.23 2.19 C29.22 0.62, 42.42 3.41, 47.29 4.37 C52.16 5.32, 51.62 7.32, 51.44 7.93 M30.23 -0.82 C36.71 -1.23, 45.02 2.15, 50.59 6.61 C56.16 11.07, 62.12 19.28, 63.67 25.95 C65.22 32.61, 63.18 40.48, 59.86 46.61 C56.55 52.74, 50.28 60.15, 43.76 62.71 C37.25 65.27, 27.25 64.25, 20.76 61.95 C14.26 59.66, 8.08 54.87, 4.8 48.93 C1.52 43, 0.09 32.98, 1.05 26.35 C2.01 19.72, 5.45 13.38, 10.56 9.16 C15.66 4.94, 28.04 2.42, 31.69 1.01 C35.34 -0.4, 32.64 0.29, 32.46 0.7" stroke="#495057" stroke-width="4" fill="none"></path>
	</g>
	<g stroke-linecap="round" transform="translate(269.61709016238115 82.67883211678856) rotate(9.974979380063978 21.573275862068954 37.5)">
		<path d="M0.8 -0.31 C16.61 0.07, 30.06 1.2, 42.19 1.05 M0.48 -0.76 C12.65 0.95, 23.34 0.92, 43.27 0.55 M43.65 -0.28 C42.96 26.13, 45 50.25, 44.47 73.31 M42.77 0.89 C42.32 22.79, 41.41 43.76, 42.83 74.39 M42.95 74.22 C31.26 73.64, 18.44 73.94, -0.58 76.72 M43.34 75.07 C31.24 75.03, 18.96 74.82, -0.84 74.57 M-1.43 73.85 C0.59 46.82, -0.87 20.26, -1.88 1.44 M-0.98 75.84 C0.22 53.33, -1.05 29.81, -0.18 0.01" stroke="#495057" stroke-width="4" fill="none"></path>
	</g>
	<g stroke-linecap="round" transform="translate(46.0404478266139 82.45985401459882) rotate(351.69307577779335 21.573275862068954 37.5)">
		<path d="M1.63 -1.91 C17.65 -1.78, 32.31 -0.12, 42.7 1.13 M-0.72 -0.31 C10.9 -0.85, 23.43 -0.55, 43.3 -0.6 M42.87 1.73 C44.94 20.98, 45.24 41.08, 41.49 73.52 M42.77 0.82 C42.73 19.15, 42.1 37.87, 43.69 74.72 M44.02 74.23 C30.58 76.95, 19.78 76.49, 1.91 75.07 M42.96 75.35 C32.09 75.8, 20.44 76, -0.29 75.25 M0.15 75.18 C-0.57 58.26, -0.27 45.91, -0.48 -0.38 M0.77 74.17 C0.89 52.38, 1.13 30.03, 0.38 -0.61" stroke="#495057" stroke-width="4" fill="none"></path>
	</g>
	<g stroke-linecap="round">
		<g transform="translate(297.6973821331842 169.5985401459855) rotate(0 4.246226167616328 20.811257895346614)">
			<path d="M-0.19 0.49 C1.56 7.22, 8.39 34.08, 10.24 40.86 M-1.74 -0.3 C-0.13 6.52, 7.24 34.83, 9.28 41.92" stroke="#495057" stroke-width="4" fill="none"></path>
		</g>
	</g>
	<g stroke-linecap="round">
		<g transform="translate(60.252126658731186 169.37956204379583) rotate(0 -9.579072420596844 16.750825326470448)">
			<path d="M-0.82 -1.09 C-3.97 4.65, -15.98 28.8, -19.12 34.59 M0.95 0.95 C-2.35 6.31, -16.5 27.06, -20.11 32.69" stroke="#495057" stroke-width="4" fill="none"></path>
		</g>
	</g>
	<g stroke-linecap="round">
		<g transform="translate(37.405411330264315 211.49635036496375) rotate(0 6.679233361949741 18.846351452676004)">
			<path d="M-0.67 0.71 C1.73 7.05, 11.56 31.67, 14.03 37.65 M1.18 0.04 C3.52 6.06, 11.37 29.59, 13.47 35.87" stroke="#495057" stroke-width="4" fill="none"></path>
		</g>
	</g>
	<g stroke-linecap="round">
		<g transform="translate(90.47110476092007 169.67153284671548) rotate(0 9.263760241493287 15.949467752611469)">
			<path d="M-0.22 -0.26 C2.86 5.19, 14.93 26.74, 18.09 32.21 M-1.8 -1.44 C1.7 4.19, 17.06 27.49, 20.33 33.34" stroke="#495057" stroke-width="4" fill="none"></path>
		</g>
	</g>
	<g stroke-linecap="round">
		<g transform="translate(115.79957191420476 205.94890510948926) rotate(0 22.928291962448156 -10.126822260796132)">
			<path d="M1.11 0.88 C8.79 -2.83, 38.05 -17.61, 45.62 -21.13 M0.24 0.29 C7.81 -2.72, 37.06 -15.97, 44.73 -19.73" stroke="#495057" stroke-width="4" fill="none"></path>
		</g>
	</g>
	<g stroke-linecap="round">
		<g transform="translate(268.2813237390235 163.54014598540158) rotate(0 -16.11786290857026 16.78973181876856)">
			<path d="M-0.29 -0.95 C-6.05 4.73, -27.91 27.55, -33.6 33.13 M1.75 1.17 C-4.15 7.11, -27.86 29.15, -33.99 34.53" stroke="#495057" stroke-width="4" fill="none"></path>
		</g>
	</g>
	<g stroke-linecap="round">
		<g transform="translate(181.80733296210974 183.02752593743224) rotate(0 22.661195770134782 7.727452647661863)">
			<path d="M0.87 -0.97 C8.58 1.73, 38.21 12.48, 45.45 15.24 M-0.13 1.13 C7.53 4.06, 37.51 13.83, 44.73 16.43" stroke="#495057" stroke-width="4" fill="none"></path>
		</g>
	</g>
	<g stroke-linecap="round">
		<g transform="translate(303.3178200893883 219.74452554744533) rotate(0 -7.521136866602205 18.796441829559797)">
			<path d="M-0.27 0.01 C-3.12 6.09, -13.41 30.98, -16 37.38 M1.78 -1.03 C-1.29 5.12, -13.8 32.39, -16.82 38.62" stroke="#495057" stroke-width="4" fill="none"></path>
		</g>
	</g>
	<g stroke-linecap="round">
		<g transform="translate(323.99665220617703 110.35766423357683) rotate(0 6.370668729171939 15.117993099097134)">
			<path d="M0.49 -0.02 C2.28 5.23, 9.37 26.09, 11.22 31.31 M-0.71 -1.07 C1.41 3.85, 11.58 24.48, 13.45 29.53" stroke="#495057" stroke-width="4" fill="none"></path>
		</g>
	</g>
	<g stroke-linecap="round">
		<g transform="translate(30.69699512807324 100.76013495105934) rotate(0 -9.537778078497581 17.348927846390495)">
			<path d="M-0.38 0.28 C-3.44 6.26, -16.22 29.76, -19.45 35.32 M1.62 -0.62 C-1.55 5.11, -17.54 27.91, -20.7 33.79" stroke="#495057" stroke-width="4" fill="none"></path>
		</g>
	</g>
	<g stroke-linecap="round">
		<g transform="translate(327.4273091404832 142.255474452555) rotate(0 -22.456580954283595 5.109195253595004)">
			<path d="M-0.84 -0.6 C-8.4 1.03, -38.67 7.65, -45.84 9.37 M0.92 1.69 C-6.23 3.56, -36.13 9.24, -43.63 10.82" stroke="#495057" stroke-width="4" fill="none"></path>
		</g>
	</g>
	<g stroke-linecap="round">
		<g transform="translate(62.70080136774436 145.97829673481283) rotate(0 -22.454140371821552 -4.333243376587035)">
			<path d="M0.46 -0.08 C-7.02 -1.13, -36.75 -5.77, -44.23 -6.83 M-0.76 -1.17 C-8.48 -2.52, -37.91 -7.41, -45.36 -8.59" stroke="#495057" stroke-width="4" fill="none"></path>
		</g>
	</g>
	<g stroke-linecap="round">
		<g transform="translate(270.376214249972 87.37956204379583) rotate(0 -12.144399971856046 -8.456976429575803)">
			<path d="M-0.02 -0.91 C-3.93 -4.02, -19.72 -15.32, -23.67 -18.13 M-1.48 1.22 C-5.48 -1.77, -20.5 -13.92, -24.27 -16.9" stroke="#495057" stroke-width="4" fill="none"></path>
		</g>
	</g>
	<g stroke-linecap="round">
		<g transform="translate(122.38453495598219 76.38602615306121) rotate(0 -12.971734389833614 7.3646258676618)">
			<path d="M0.4 0.17 C-4.13 2.81, -22.17 13.14, -26.35 15.51 M-0.85 -0.78 C-5.08 1.51, -20.07 10.91, -24.1 13.6" stroke="#495057" stroke-width="4" fill="none"></path>
		</g>
	</g>
	<g stroke-linecap="round">
		<g transform="translate(199.0906545168175 96.26924062756677) rotate(0 18.962030123987574 -10.18877375546026)">
			<path d="M0.21 -0.58 C6.65 -4.42, 32.75 -18.41, 39.06 -22.11 M-1.13 1.73 C5.14 -2.02, 31.97 -16.82, 38.33 -20.77" stroke="#495057" stroke-width="4" fill="none"></path>
		</g>
	</g>
	<g stroke-linecap="round">
		<g transform="translate(128.7986837138967 83.64150340128947) rotate(0 15.233776178914809 13.263903524407823)">
			<path d="M-0.04 -1.14 C5.09 3.12, 26.55 21.96, 31.99 26.5 M-1.52 0.88 C3.31 5.19, 25.25 23.34, 30.82 27.67" stroke="#495057" stroke-width="4" fill="none"></path>
		</g>
	</g>
</svg>